<svg width="40" height="40" viewBox="0 0 40 40" fill="none" xmlns="http://www.w3.org/2000/svg">
<path d="M17.973 10.0351V4.03806C17.973 3.5079 18.1834 2.99944 18.5579 2.62456C18.9324 2.24967 19.4404 2.03906 19.97 2.03906H37.943C38.4727 2.03906 38.9806 2.24967 39.3551 2.62456C39.7296 2.99944 39.94 3.5079 39.94 4.03806V36.0221C39.94 36.5522 39.7296 37.0607 39.3551 37.4356C38.9806 37.8105 38.4727 38.0211 37.943 38.0211H1.997C1.46736 38.0211 0.959419 37.8105 0.584908 37.4356C0.210398 37.0607 0 36.5522 0 36.0221V12.0341C0 11.5039 0.210398 10.9954 0.584908 10.6206C0.959419 10.2457 1.46736 10.0351 1.997 10.0351H17.973ZM7.99 28.0261C6.88599 28.0261 5.991 28.9211 5.991 30.0251C5.991 31.1291 6.88599 32.0241 7.99001 32.0241H13.977C15.081 32.0241 15.976 31.1291 15.976 30.0251C15.976 28.9211 15.081 28.0261 13.977 28.0261H7.99ZM25.963 28.0261C24.859 28.0261 23.964 28.9211 23.964 30.0251C23.964 31.1291 24.859 32.0241 25.963 32.0241H31.95C33.054 32.0241 33.949 31.1291 33.949 30.0251C33.949 28.9211 33.054 28.0261 31.95 28.0261H25.963ZM25.963 22.0291C24.859 22.0291 23.964 22.9241 23.964 24.0281C23.964 25.1321 24.859 26.0271 25.963 26.0271H31.95C33.054 26.0271 33.949 25.1321 33.949 24.0281C33.949 22.9241 33.054 22.0291 31.95 22.0291H25.963ZM25.963 16.0321C24.859 16.0321 23.964 16.927 23.964 18.0311C23.964 19.1351 24.859 20.0301 25.963 20.0301H31.95C33.054 20.0301 33.949 19.1351 33.949 18.0311C33.949 16.927 33.054 16.0321 31.95 16.0321H25.963ZM7.99 22.0291C6.88599 22.0291 5.991 22.9241 5.991 24.0281C5.991 25.1321 6.88599 26.0271 7.99001 26.0271H13.977C15.081 26.0271 15.976 25.1321 15.976 24.0281C15.976 22.9241 15.081 22.0291 13.977 22.0291H7.99Z" fill="#540B14"/>
</svg>
